<svg width="16" height="16" viewBox="0 0 16 16" fill="#38373E" xmlns="http://www.w3.org/2000/svg">
<path fill-rule="evenodd" clip-rule="evenodd" d="M8.75154 2.74854C8.75154 2.33432 8.41576 1.99854 8.00154 1.99854C7.58733 1.99854 7.25154 2.33432 7.25154 2.74854V7.25007H2.75C2.33579 7.25006 2 7.58585 2 8.00006C2 8.41428 2.33579 8.75006 2.75 8.75007H7.25154V13.2515C7.25154 13.6658 7.58733 14.0015 8.00154 14.0015C8.41576 14.0015 8.75154 13.6658 8.75154 13.2515V8.75007H13.253C13.6672 8.75007 14.003 8.41428 14.003 8.00007C14.003 7.58585 13.6672 7.25007 13.253 7.25007H8.75154V2.74854Z" />
</svg>
