<svg width="24" height="24" viewBox="0 0 24 24" fill="#38373E" xmlns="http://www.w3.org/2000/svg">
<path d="M15.3158 14C14.5263 14 13.8553 13.7083 13.3026 13.125C12.75 12.5417 12.4737 11.8333 12.4737 11C12.4737 10.1667 12.75 9.45833 13.3026 8.875C13.8553 8.29167 14.5263 8 15.3158 8C16.1053 8 16.7763 8.29167 17.3289 8.875C17.8816 9.45833 18.1579 10.1667 18.1579 11C18.1579 11.8333 17.8816 12.5417 17.3289 13.125C16.7763 13.7083 16.1053 14 15.3158 14ZM9.63158 20V18.1C9.63158 17.75 9.71053 17.4167 9.86842 17.1C10.0263 16.7833 10.2474 16.5333 10.5316 16.35C11.2421 15.9 11.9962 15.5627 12.7939 15.338C13.5916 15.1133 14.4322 15.0007 15.3158 15C16.2 15 17.0409 15.1127 17.8386 15.338C18.6363 15.5633 19.3901 15.9007 20.1 16.35C20.3842 16.5333 20.6053 16.7833 20.7632 17.1C20.9211 17.4167 21 17.75 21 18.1V20H9.63158ZM3 14V12H10.5789V14H3ZM3 6V4H14.3684V6H3ZM10.6737 10H3V8H11.5263C11.3053 8.28333 11.1275 8.59167 10.9929 8.925C10.8584 9.25833 10.752 9.61667 10.6737 10Z" />
</svg>
