<svg width="24" height="24" viewBox="0 0 24 24" fill="#38373E" xmlns="http://www.w3.org/2000/svg">
    <path d="M19.3636 15.2V5.6H4.63636V15.2H19.3636ZM19.3636 4C19.7976 4 20.2138 4.16857 20.5207 4.46863C20.8276 4.76869 21 5.17565 21 5.6V15.2C21 15.6243 20.8276 16.0313 20.5207 16.3314C20.2138 16.6314 19.7976 16.8 19.3636 16.8H13.6364V18.4H15.2727V20H8.72727V18.4H10.3636V16.8H4.63636C4.20237 16.8 3.78616 16.6314 3.47928 16.3314C3.1724 16.0313 3 15.6243 3 15.2V5.6C3 4.712 3.72818 4 4.63636 4H19.3636ZM6.27273 7.2H13.6364V11.2H6.27273V7.2ZM14.4545 7.2H17.7273V8.8H14.4545V7.2ZM17.7273 9.6V13.6H14.4545V9.6H17.7273ZM6.27273 12H9.54545V13.6H6.27273V12ZM10.3636 12H13.6364V13.6H10.3636V12Z" />
</svg>
