<svg width="24" height="24" viewBox="0 0 24 24" fill="none" xmlns="http://www.w3.org/2000/svg">
<mask id="path-1-inside-1_1538_23640" fill="white">
<path fill-rule="evenodd" clip-rule="evenodd" d="M8.5 4C8.5 2.89543 9.39543 2 10.5 2H13.5C14.6046 2 15.5 2.89543 15.5 4H18C19.1046 4 20 4.89543 20 6V20C20 21.1046 19.1046 22 18 22H6C4.89543 22 4 21.1046 4 20V6C4 4.89543 4.89543 4 6 4L8.5 4ZM10.5 7C9.75972 7 9.11337 6.5978 8.76756 6H6V20H18V6H15.2324C14.8866 6.5978 14.2403 7 13.5 7H10.5ZM9 8.5C8.44772 8.5 8 8.94772 8 9.5C8 10.0523 8.44772 10.5 9 10.5H15C15.5523 10.5 16 10.0523 16 9.5C16 8.94772 15.5523 8.5 15 8.5H9ZM8 13C8 12.4477 8.44772 12 9 12H15C15.5523 12 16 12.4477 16 13C16 13.5523 15.5523 14 15 14H9C8.44772 14 8 13.5523 8 13ZM9 15.5C8.44772 15.5 8 15.9477 8 16.5C8 17.0523 8.44772 17.5 9 17.5H12C12.5523 17.5 13 17.0523 13 16.5C13 15.9477 12.5523 15.5 12 15.5H9ZM13.5 4H10.5V5H13.5V4Z"/>
</mask>
<path d="M8.5 4V6H10.5V4H8.5ZM15.5 4H13.5V6H15.5V4ZM6 4V6V4ZM8.76756 6L10.4988 4.99855L9.92115 4H8.76756V6ZM6 6V4H4V6H6ZM6 20H4V22H6V20ZM18 20V22H20V20H18ZM18 6H20V4H18V6ZM15.2324 6V4H14.0789L13.5012 4.99855L15.2324 6ZM10.5 4V2H8.5V4H10.5ZM13.5 4H15.5V2H13.5V4ZM10.5 5H8.5V7H10.5V5ZM13.5 5V7H15.5V5H13.5ZM10.5 0C8.29086 0 6.5 1.79086 6.5 4H10.5V4V0ZM13.5 0H10.5V4H13.5V0ZM17.5 4C17.5 1.79086 15.7091 0 13.5 0V4H17.5ZM18 2H15.5V6H18V2ZM22 6C22 3.79086 20.2091 2 18 2V6H22ZM22 20V6H18V20H22ZM18 24C20.2091 24 22 22.2091 22 20H18V24ZM6 24H18V20H6V24ZM2 20C2 22.2091 3.79086 24 6 24V20H2ZM2 6V20H6V6H2ZM6 2C3.79086 2 2 3.79086 2 6H6V2ZM8.5 2L6 2L6 6L8.5 6V2ZM7.03635 7.00145C7.72495 8.19184 9.01692 9 10.5 9V5C10.4968 5 10.4969 4.99966 10.4988 5.00019C10.5003 5.00062 10.5013 5.00113 10.5015 5.00123C10.5015 5.00124 10.5008 5.00084 10.5 4.99996C10.4991 4.99909 10.4987 4.99848 10.4988 4.99855L7.03635 7.00145ZM6 8H8.76756V4H6V8ZM8 20V6H4V20H8ZM18 18H6V22H18V18ZM16 6V20H20V6H16ZM15.2324 8H18V4H15.2324V8ZM13.5 9C14.9831 9 16.275 8.19184 16.9636 7.00145L13.5012 4.99855C13.5013 4.99848 13.5009 4.99909 13.5 4.99996C13.4992 5.00084 13.4985 5.00124 13.4985 5.00123C13.4987 5.00113 13.4997 5.00062 13.5012 5.00019C13.5031 4.99966 13.5032 5 13.5 5V9ZM10.5 9H13.5V5H10.5V9ZM10 9.5C10 10.0523 9.55228 10.5 9 10.5V6.5C7.34315 6.5 6 7.84315 6 9.5H10ZM9 8.5C9.55228 8.5 10 8.94772 10 9.5H6C6 11.1569 7.34315 12.5 9 12.5V8.5ZM15 8.5H9V12.5H15V8.5ZM14 9.5C14 8.94772 14.4477 8.5 15 8.5V12.5C16.6569 12.5 18 11.1569 18 9.5H14ZM15 10.5C14.4477 10.5 14 10.0523 14 9.5H18C18 7.84315 16.6569 6.5 15 6.5V10.5ZM9 10.5H15V6.5H9V10.5ZM9 10C7.34315 10 6 11.3431 6 13H10C10 13.5523 9.55228 14 9 14V10ZM15 10H9V14H15V10ZM18 13C18 11.3431 16.6569 10 15 10V14C14.4477 14 14 13.5523 14 13H18ZM15 16C16.6569 16 18 14.6569 18 13H14C14 12.4477 14.4477 12 15 12V16ZM9 16H15V12H9V16ZM6 13C6 14.6569 7.34315 16 9 16V12C9.55228 12 10 12.4477 10 13H6ZM10 16.5C10 17.0523 9.55228 17.5 9 17.5V13.5C7.34315 13.5 6 14.8431 6 16.5H10ZM9 15.5C9.55228 15.5 10 15.9477 10 16.5H6C6 18.1569 7.34315 19.5 9 19.5V15.5ZM12 15.5H9V19.5H12V15.5ZM11 16.5C11 15.9477 11.4477 15.5 12 15.5V19.5C13.6569 19.5 15 18.1569 15 16.5H11ZM12 17.5C11.4477 17.5 11 17.0523 11 16.5H15C15 14.8431 13.6569 13.5 12 13.5V17.5ZM9 17.5H12V13.5H9V17.5ZM10.5 6H13.5V2H10.5V6ZM12.5 5V4H8.5V5H12.5ZM13.5 3H10.5V7H13.5V3ZM11.5 4V5H15.5V4H11.5Z" mask="url(#path-1-inside-1_1538_23640)"/>
</svg>
