<svg width="15" height="15" viewBox="0 0 15 15" fill="none" xmlns="http://www.w3.org/2000/svg">
<path d="M9.93136 7.5L14.8576 2.57372C15.0471 2.38428 15.0471 2.06841 14.8576 1.87896L13.1208 0.142079C12.9313 -0.0473596 12.6154 -0.0473596 12.426 0.142079L7.5 5.06836L2.57372 0.142079C2.38429 -0.0473596 2.06841 -0.0473596 1.87896 0.142079L0.142079 1.87896C-0.0473596 2.0684 -0.0473596 2.38428 0.142079 2.57372L5.06836 7.5L0.142079 12.4263C-0.0473596 12.6157 -0.0473596 12.9316 0.142079 13.121L1.87896 14.8579C2.0684 15.0474 2.38428 15.0474 2.57372 14.8579L7.5 9.93165L12.4263 14.8579C12.6157 15.0474 12.9316 15.0474 13.121 14.8579L14.8579 13.121C15.0474 12.9316 15.0474 12.6157 14.8579 12.4263L9.93136 7.5Z" fill="#000000"/>
</svg>
