<svg width="24" height="24" viewBox="0 0 24 24" fill="#38373E" xmlns="http://www.w3.org/2000/svg">
<path fill-rule="evenodd" clip-rule="evenodd" d="M11.4407 8.636C11.4407 10.6455 9.81419 12.272 7.80465 12.272C5.79511 12.272 4.16865 10.6455 4.16865 8.636C4.16865 6.62646 5.79511 5 7.80465 5C9.81419 5 11.4407 6.62646 11.4407 8.636ZM10.0285 13.3109H10.2979C12.3626 13.3109 14.0378 14.986 14.0378 17.0507V17.9857C14.0378 18.846 13.3398 19.544 12.4795 19.544H3.12981C2.2695 19.544 1.57152 18.846 1.57152 17.9857V17.0507C1.57152 14.986 3.24668 13.3109 5.31141 13.3109H5.58086C6.25936 13.6355 7.00604 13.8303 7.80466 13.8303C8.60328 13.8303 9.35321 13.6355 10.0285 13.3109ZM17.1544 12.272C18.875 12.272 20.271 10.876 20.271 9.15543C20.271 7.43483 18.875 6.03886 17.1544 6.03886C15.4338 6.03886 14.0378 7.43483 14.0378 9.15543C14.0378 10.876 15.4338 12.272 17.1544 12.272ZM18.5893 13.3109H18.7127C20.7222 13.3109 22.3487 14.9373 22.3487 16.9469C22.3487 17.8072 21.6507 18.5051 20.7904 18.5051H15.0572C15.0586 18.4753 15.0625 18.4454 15.0665 18.4153C15.0715 18.3766 15.0767 18.3375 15.0767 18.2974V17.0507C15.0767 15.7976 14.58 14.6646 13.7878 13.8108C14.3235 13.5024 14.9338 13.3109 15.5961 13.3109H15.7195C16.1707 13.4667 16.6479 13.5706 17.1544 13.5706C17.6608 13.5706 18.1381 13.4667 18.5893 13.3109Z" />
</svg>
