<svg width="24" height="24" viewBox="0 0 24 24" fill="#38373E" xmlns="http://www.w3.org/2000/svg">
<path fill-rule="evenodd" clip-rule="evenodd" d="M20.9768 16.3527L21.7742 16.818C21.8659 16.871 21.9071 16.9807 21.879 17.0847C21.6712 17.7599 21.3175 18.369 20.8551 18.874C20.784 18.9534 20.6698 18.9704 20.5781 18.9175L19.7807 18.4522C19.4438 18.7416 19.0582 18.9667 18.6427 19.1161V20.0467C18.6427 20.1526 18.5697 20.2453 18.4667 20.268C17.8134 20.4155 17.1097 20.423 16.4227 20.268C16.3198 20.2453 16.2468 20.1526 16.2468 20.0467V19.1161C15.8293 18.9686 15.4437 18.7435 15.1087 18.4522L14.3113 18.9175C14.2215 18.9704 14.1054 18.9515 14.0343 18.874C13.5719 18.3671 13.2182 17.758 13.0104 17.0847C12.9805 16.9826 13.0216 16.8729 13.1134 16.8199L13.9107 16.3546C13.8303 15.9158 13.8303 15.4656 13.9107 15.0268L13.1134 14.5616C13.0216 14.5086 12.9786 14.3989 13.0104 14.2968C13.2182 13.6215 13.5719 13.0125 14.0343 12.5075C14.1054 12.428 14.2196 12.411 14.3113 12.464L15.1068 12.9293C15.4437 12.6399 15.8293 12.4148 16.2449 12.2654V11.3348C16.2449 11.2289 16.3179 11.1362 16.4208 11.1135C17.0741 10.966 17.7779 10.9584 18.4648 11.1135C18.5678 11.1362 18.6408 11.2289 18.6408 11.3348V12.2635C19.0582 12.411 19.4438 12.6361 19.7788 12.9274L20.5762 12.4621C20.6661 12.4091 20.7821 12.428 20.8532 12.5056C21.3156 13.0125 21.6694 13.6215 21.8771 14.2949C21.9071 14.397 21.8659 14.5067 21.7742 14.5597L20.9768 15.025C21.0573 15.4638 21.0573 15.9139 20.9768 16.3527ZM15.9462 15.6889C15.9462 16.523 16.6182 17.202 17.4436 17.202C18.2691 17.202 18.9411 16.523 18.9411 15.6889C18.9411 14.8548 18.2691 14.1757 17.4436 14.1757C16.6182 14.1757 15.9462 14.8548 15.9462 15.6889Z" />
<path fill-rule="evenodd" clip-rule="evenodd" d="M9.0945 5C9.545 5 9.9785 5.17063 10.3015 5.47938L11.5 6.625H18.3C19.235 6.625 20 7.35625 20 8.25V10.6518C19.7891 10.1617 19.3554 9.77635 18.7953 9.65033C17.8862 9.44508 16.9575 9.45492 16.0928 9.64983C15.3933 9.80627 14.8905 10.3671 14.7718 11.0317C14.1351 10.8073 13.4036 10.9703 12.9246 11.4984C12.3165 12.1637 11.8513 12.9652 11.5776 13.8531C11.369 14.5264 11.5913 15.2496 12.1198 15.6905C11.5805 16.1391 11.3824 16.8632 11.5711 17.5068L11.5741 17.5169L11.5772 17.527C11.6268 17.6876 11.6826 17.8453 11.7444 18H4.7C3.765 18 3 17.2688 3 16.375L3.0085 6.625C3.0085 5.73125 3.765 5 4.7 5H9.0945Z" />
</svg>
