<svg
              width="16"
              height="16"
              viewBox="0 0 16 16"
              fill="#FFD23A"
              xmlns="http://www.w3.org/2000/svg"
            >
              <path
                fill-rule="evenodd"
                clip-rule="evenodd"
                d="M14.5981 12.3128C15.0307 13.0627 14.4876 14 13.6236 14H2.37627C1.51056 14 0.970046 13.0612 1.40181 12.3128L7.02554 2.56215C7.45836 1.81194 8.54242 1.8133 8.97447 2.56215L14.5981 12.3128ZM8 10.2969C7.40457 10.2969 6.92188 10.7796 6.92188 11.375C6.92188 11.9704 7.40457 12.4531 8 12.4531C8.59543 12.4531 9.07812 11.9704 9.07812 11.375C9.07812 10.7796 8.59543 10.2969 8 10.2969ZM7.15027 9.60908L6.97641 6.42158C6.96762 6.26047 7.09587 6.125 7.25721 6.125H8.74275C8.9041 6.125 9.03237 6.26047 9.02358 6.42158L8.84972 9.60908C8.84159 9.75823 8.71826 9.875 8.56889 9.875H7.4311C7.28173 9.875 7.1584 9.75823 7.15027 9.60908Z"
              />
            </svg>